<svg xmlns="http://www.w3.org/2000/svg"  viewBox="0 0 128 128" width="64px" height="64px"><path d="M 59 1 C 51.8 1 46 6.8 46 14 L 46 34 C 46 37.9 42.9 41 39 41 L 20.800781 41 C 18.700781 41 17 39.299219 17 37.199219 C 17 36.099219 17.500781 35.000781 18.300781 34.300781 L 36.900391 18.300781 C 38.200391 17.200781 38.299219 15.299609 37.199219 14.099609 C 36.099219 12.799609 34.2 12.700781 33 13.800781 L 14.400391 29.699219 C 12.200391 31.599219 11 34.299219 11 37.199219 C 11 42.599219 15.400781 47 20.800781 47 L 39 47 C 46.2 47 52 41.2 52 34 L 52 14 C 52 10.1 55.1 7 59 7 L 98 7 C 101.9 7 105 10.1 105 14 L 105 83 L 105 84 L 105 112.09961 L 98 121 L 90.099609 113.09961 C 88.899609 111.89961 87.000391 111.89961 85.900391 113.09961 L 78 121 L 70.099609 113.09961 C 68.899609 111.89961 67.000391 111.89961 65.900391 113.09961 L 58 121 L 50.099609 113.09961 C 48.899609 111.89961 47.000391 111.89961 45.900391 113.09961 L 38 121 L 30.099609 113.09961 C 28.899609 111.89961 27.000391 111.89961 25.900391 113.09961 L 18.199219 120.80078 C 18.099219 120.90078 17.899219 121 17.699219 121 C 17.299219 121 17 120.70078 17 120.30078 L 17 67.199219 C 17 65.499219 15.7 64.199219 14 64.199219 C 12.3 64.199219 11 65.499219 11 67.199219 L 11 120.30078 C 11 124.00078 13.999219 127 17.699219 127 C 19.499219 127 21.200391 126.3 22.400391 125 L 28 119.40039 L 33.800781 125.19922 C 34.900781 126.29922 36.4 127 38 127 C 39.6 127 41.099219 126.39922 42.199219 125.19922 L 48 119.40039 L 53.800781 125.19922 C 54.900781 126.29922 56.4 127 58 127 C 59.6 127 61.099219 126.39922 62.199219 125.19922 L 68 119.40039 L 73.800781 125.19922 C 74.900781 126.29922 76.4 127 78 127 C 79.6 127 81.099219 126.39922 82.199219 125.19922 L 88 119.40039 L 93.800781 125.19922 C 94.900781 126.29922 96.4 127 98 127 C 99.6 127 101.09922 126.39922 102.19922 125.19922 C 102.29922 125.09922 102.40039 125.00039 102.40039 124.90039 L 110.30078 114.90039 C 110.70078 114.40039 110.90039 113.7 110.90039 113 L 110.90039 84 L 110.90039 83 L 110.90039 14 C 111.00039 6.8 105.2 1 98 1 L 59 1 z M 48.310547 71.837891 C 48.045483 71.842187 47.775 71.862891 47.5 71.900391 C 45 72.200391 43 74.900781 39 80.300781 C 38.4 81.100781 37.900781 81.799609 37.300781 82.599609 C 36.300781 83.899609 36.600391 85.800781 37.900391 86.800781 C 39.300391 87.800781 41.199219 87.499219 42.199219 86.199219 C 42.799219 85.399219 43.300391 84.600781 43.900391 83.800781 C 45.400391 81.800781 47.499609 78.800781 48.599609 77.800781 C 49.799609 78.100781 51.699609 80.499219 53.099609 82.199219 C 55.799609 85.499219 58.799219 89.300781 63.199219 89.300781 L 64 89.300781 C 67.1 89.000781 69.400391 86.800391 71.400391 84.900391 C 72.900391 83.400391 74.4 81.999609 75.5 82.099609 C 75.8 82.099609 76.299219 82.3 76.699219 82.5 C 78.199219 83.2 79.999219 82.599219 80.699219 81.199219 C 81.399219 79.799219 80.800391 77.899219 79.400391 77.199219 C 78.300391 76.599219 77.199609 76.299219 76.099609 76.199219 C 72.199609 75.799219 69.399219 78.499609 67.199219 80.599609 C 65.799219 81.899609 64.400781 83.300391 63.300781 83.400391 C 61.700781 83.600391 59.499219 80.8 57.699219 78.5 C 55.167969 75.3125 52.286499 71.773438 48.310547 71.837891 z M 90 83 A 3 3 0 0 0 90 89 A 3 3 0 0 0 90 83 z"/></svg>